<svg xmlns="http://www.w3.org/2000/svg" viewBox="0 0 512 512" fill="none">
<circle cx="256" cy="256" r="256" fill="white"/>
<path d="M252.927 370.744L96.3974 431.104C94.1248 431.98 92.0819 429.348 93.4569 427.315L249.481 196.633C250.856 194.6 254.003 195.601 254.01 198.074L254.516 368.396C254.519 369.44 253.887 370.374 252.927 370.744Z" fill="#A07300" stroke="black" stroke-width="5"/>
<path d="M255.813 369.726L257.465 198.228C257.489 195.765 260.621 194.779 261.992 196.803L418.468 427.695C419.839 429.718 417.819 432.347 415.548 431.494L257.421 372.099C256.445 371.733 255.803 370.785 255.813 369.726Z" fill="#905D00" stroke="black" stroke-width="5"/>
<path d="M258.447 252.607L258.501 12.9092C258.502 10.1266 262.326 9.37898 263.316 11.968L422.494 428.316C423.483 430.905 420.168 432.983 418.319 430.932L259.088 254.282C258.675 253.825 258.447 253.228 258.447 252.607Z" fill="#FFB444" stroke="black" stroke-width="5"/>
<path d="M254.82 254.478L94.0629 429.874C92.1984 431.908 88.9015 429.804 89.9102 427.224L252.217 12.0034C253.225 9.42294 257.042 10.1978 257.024 12.9793L255.474 252.804C255.47 253.426 255.237 254.023 254.82 254.478Z" fill="#FFDE6E" stroke="black" stroke-width="5"/>
</svg>
