<svg viewBox="0 0 512 512" fill="none" xmlns="http://www.w3.org/2000/svg">
<circle cx="275" cy="327.002" r="275" fill="white"/>
<path d="M271.881 444.417L107.645 506.66C105.353 507.528 103.31 504.923 104.699 502.905L268.405 265.028C269.794 263.01 272.957 263.988 272.964 266.438L273.495 442.072C273.498 443.114 272.855 444.048 271.881 444.417Z" fill="#A07300" stroke="black" stroke-width="5"/>
<path d="M274.665 443.438L276.398 266.604C276.422 264.163 279.57 263.2 280.956 265.209L445.123 503.286C446.508 505.295 444.489 507.896 442.199 507.051L276.299 445.808C275.308 445.443 274.654 444.494 274.665 443.438Z" fill="#905D00" stroke="black" stroke-width="5"/>
<path d="M277.408 323.115L277.465 75.7909C277.465 73.0253 281.292 72.3076 282.295 74.8851L449.41 504.479C450.413 507.057 447.107 509.114 445.238 507.075L278.066 324.805C277.643 324.344 277.408 323.741 277.408 323.115Z" fill="#FFB444" stroke="black" stroke-width="5"/>
<path d="M273.833 325.01L105.063 505.982C103.177 508.004 99.8898 505.922 100.912 503.353L271.308 74.9312C272.33 72.3623 276.15 73.1071 276.131 75.8716L274.504 323.321C274.5 323.949 274.26 324.551 273.833 325.01Z" fill="#FFDE6E" stroke="black" stroke-width="5"/>
</svg>
